<?xml version="1.0" encoding="utf-8"?>
<!-- Generator: Adobe Illustrator 19.1.1, SVG Export Plug-In . SVG Version: 6.00 Build 0)  -->
<svg version="1.1" id="Layer_1" xmlns="http://www.w3.org/2000/svg" xmlns:xlink="http://www.w3.org/1999/xlink" x="0px" y="0px"
	 viewBox="120 169.9 1200 222.1" style="enable-background:new 120 169.9 1200 222.1;" xml:space="preserve">
<style type="text/css">
	.st0{fill:#0086CC;}
	.st1{fill:#FDDB00;}
	.st2{fill:#DDDB00;}
	.st3{fill:#009CDE;}
	.st4{fill:#921676;}
	.st5{fill:#65B22E;}
	.st6{fill:#0059A2;}
	.st7{fill:#008FD6;}
	.st8{fill:#A1C518;}
	.st9{fill:#F49B01;}
	.st10{fill:#ED7203;}
	.st11{fill:#01A9E2;}
	.st12{fill:#E43314;}
	.st13{fill:#692171;}
	.st14{fill:#03A03A;}
	.st15{fill:#86BC26;}
	.st16{fill:#F08701;}
	.st17{fill:#FECB00;}
	.st18{fill:#F9B21E;}
	.st19{fill:#02874B;}
	.st20{fill:#048C3C;}
	.st21{fill:#17AE97;}
	.st22{fill:#0079C1;}
	.st23{fill:#0169B3;}
	.st24{fill:#2AB8CD;}
	.st25{fill:#3BA936;}
	.st26{fill:#E95B0B;}
	.st27{fill:#B52320;}
</style>
<path class="st0" d="M558.7,117.9c39.1,0,78.2,0,117.3,0c1,1.2,2.6,1.3,3.9,1.9c10.6,5.3,20.2,12,28.2,21
	c6.5,7.3,10.6,15.7,11.6,25.6c0.3,2.6,0.4,6.4,1.6,8.9c-1,2.6-1.7,5.6-3.3,7.8c-6.2-0.5-12.3-1.4-18.5-1.6
	c-16.6-0.4-33.1,0.2-49.6,3.1c-16.4,3-32.3,7.3-47.9,13.1c-4.2,1.5-7.9,4.2-12.5,4.5c-27.7-1.2-55.3-10.4-78.4-25.5
	c2.4-3.3,7.1-7.3,9.5-10.5c10.8-14.7,21.4-29.6,33.9-42.9C556.1,121.7,558.1,120.3,558.7,117.9z"/>
<path class="st1" d="M844.8,117.9c-0.7,0.8-1.3,1.6-2,2.3c-10.5,8.5-21,17.1-31.3,25.7c-11.2,9.3-48.8,42.5-50,46.2
	c-9.1-2.5-20.4-0.8-29.6-2.7c7-12.7,15.8-30.2,20.9-43.8c3.4-9.1,6.8-18.2,8.9-27.8C764.9,117.8,830.1,117.9,844.8,117.9z"/>
<path class="st2" d="M761.4,192.1c4.1-7,38.1-37.7,49.2-47c10.4-8.7,33.5-26.4,34.1-27.2h37.5c-10.8,7.5-23.7,18.1-32.8,27.6
	c-18.2,19.2-33.2,40.6-43.3,65.3c-0.5,1.2-0.8,2.5-1.2,3.7c-7.7-5.4-15.9-10.2-24.4-14.3C774.4,197.2,767.9,194.8,761.4,192.1z"/>
<path class="st3" d="M480.6,117.9c-11.2,19.9-45.5,42.7-67.1,51c-20.8,8-63.1,6.3-79.6-12.2c30.5,7.5,59.4-11.8,73.3-38.8
	C425.4,117.9,462.3,117.9,480.6,117.9z"/>
<path class="st4" d="M1216.4,117.9c10.4,0,20.9,0,31.3,0c17.6,16.9,56,153.1-40.2,203c-61.5,34.2-163.5,35.9-165.4,36
	c8.3-4.7,39.4-50,36.3-107C1172.5,233.5,1216,153.6,1216.4,117.9z"/>
<path class="st5" d="M203.9,117.9h81.6c8.1,4.7,17.5,22.8,25.6,29.5c28.1,23.1,56.3,15.4,80.5,56.6c-13.4-0.8-43.4,1.2-58.7,0.7
	c-82.3,19.1-153.3,48.6-157.3,5.4C173.6,188.7,198.5,121.2,203.9,117.9z"/>
<path class="st6" d="M408.4,117.9c-8,11.6-21.4,23.4-33.7,30.5c-23.8,12.2-45.3,7.7-60.5-4.5c-9.9-8-20.7-24.7-20.7-26H408.4z"/>
<path class="st7" d="M469.9,134.4c3.5-7.9,38.2-6.7,45.2-7.9c11-1.8,20.2-6.5,30.8-8.6h8.4c0,4.1-38.6,54-43.4,55.5
	c-11.2,3.7-29.2-24.6-37.4-33.9C472.3,137.8,471.1,136.1,469.9,134.4C470.9,132,470.8,135.7,469.9,134.4z"/>
<path class="st8" d="M1099.1,117.9c22,0,44,0,65.9,0c5.8,0,20.5,0,23.4,0c-3.5,3.7-13,6.6-13.5,6.8c-9.1,3.4-18.5,5.6-27.7,8.5
	c-15,4.8-28.4,12-37.2,25.8c-1.8,2.8-9.3-6.7-12.5-5.4C1099.4,145.8,1101.3,125.7,1099.1,117.9z"/>
<path class="st9" d="M762.1,117.8c-2.1,9.5-4.7,19.2-8.2,28.3c-5.1,13.6-19.3,39.6-19.4,39.7c-3.4-0.8-8.9-1.9-12.3-2.7
	c5.6-13.2,10-27.4,9.8-41.9c0-3.8-3.2-16.3-6.2-23.3C736.3,117.9,751.4,117.8,762.1,117.8z"/>
<path class="st10" d="M1035.4,138.6c-3.1-3.7-5.7-7.7-9.1-11.2c-3.6-3.5-7.5-6.6-11.6-9.5c18.3,0,36.5,0,54.8,0
	c5,2,16.8,20.3,20.2,30.7c-1.9,1-3.1-0.7-4.5-1.3C1069,141.8,1052.3,139.5,1035.4,138.6z"/>
<path class="st11" d="M719.6,178.4c0.9-27.6-18.9-47.1-39.6-57.5c-1.3-0.7-2.9-1.7-3.9-2.9c14.5,0,29.1,0,43.6,0
	C726.3,123.6,737.8,146.4,719.6,178.4z"/>
<path class="st2" d="M1069.4,117.9c9.7,0,20,0,29.7,0c7.3,13.7,1.5,30.2-4.4,41.7C1094.5,159.6,1083,130.3,1069.4,117.9z"/>
<path class="st0" d="M478.8,117.9c-7,8.1-14.6,15.7-22.6,23c-6,5.4-12.1,10.6-18.9,14.9c-4.8,3-9.5,6.1-14.9,7.9
	c1.6-2.4,4.3-3.3,6.5-5c10-7.7,18-17.1,25.2-27.2c3.2-4.4,6.4-8.9,9.1-13.6C468.4,117.9,473.6,117.9,478.8,117.9z"/>
<path class="st5" d="M534.7,117.9c-5,2.6-10.4,3.7-15.8,5c-8.6,2.1-17.2,3.5-26.1,3.6c-3.3,0-6.7,0.1-9.9-1
	c-3.7-1.2-4.1-2.9-1.6-5.9c0.5-0.6,0.9-1.1,1.4-1.7C500,117.9,517.4,117.9,534.7,117.9z"/>
<path class="st12" d="M926.4,165.4c-0.1,0.3-0.3,0.4-0.5,0C926.1,165.4,926.2,165.4,926.4,165.4z"/>
<path class="st0" d="M325.7,205.9c14.1,47.5,12.2,87.3,9.7,96.8c-7.2,24.6-34.5,44.8-48.3,52.1c-9.9,5.2-31.7-0.8-64.2-28.9
	s-44.2-57.9-44.2-96c1.2-42.6,8.2-54.7,17.5-68.7c22.1-33,64.3-38.5,78.2-33C299.6,137.3,318.9,173.9,325.7,205.9z"/>
<path class="st11" d="M300.7,216.8c5.1-2.2,21.9-7,28.7-6.2c16.9,89.2,4.5,143.1-54.6,140.4C301.5,308.4,301.6,222.2,300.7,216.8z"
	/>
<path class="st3" d="M258.4,233c5.8-3.1,13.4-6.3,19.7-8.1c4.2,40,19.9,104.1-55.1,100.3L258.4,233z"/>
<path class="st13" d="M1254.5,134.8c2.4,3,3.1,6.7,4.3,10.1c7.3,21.2,10.6,43,9,65.3c0.4,38.2-16.8,79.4-60.3,110.7
	c1.6-7,6.5-15.9,7.1-34.1C1246.3,260.2,1270.3,227.9,1254.5,134.8z"/>
<path class="st13" d="M1253.7,132.5c0.1,0.5,0.1,1.1,0.2,1.6C1253.1,133.6,1253.1,133.1,1253.7,132.5z"/>
<path class="st14" d="M335.4,204.4c-3.8,0.4-7.6,0.8-11.3,1.2c-16.1-51.4-23.8-59-46.3-76.1c19.9,9.8,35.4,30.1,44.2,45.2
	c4.9,8.4,9,17.1,12.5,26.2C334.9,202,335.1,203.3,335.4,204.4z"/>
<path class="st11" d="M481.6,236.9c-22-12.5-88.6-30.2-95-31.3c-6.9-12.7-24.3-32-24.9-32.3c2.6-1,34.9,1.4,47-1.7
	c17.2-4.3,32.7-13.3,46.1-24.5c3.1-2.6,5.5-2,7,2C483.9,184.9,485.1,206.4,481.6,236.9z"/>
<path class="st15" d="M479.3,235.1c2.9-14.4,3.7-30.2,0.5-44.4c-0.2-0.8-0.3-1.6-0.5-2.5c0.6,0.2,1.3,0.3,1.8,0.6
	c8,5.1,23.2-3.5,23.7-3.9c3.6,3.4,7.3,6.8,10.9,10.2c11,10.3,38.1,26.8,38.5,26.9c-4.9,3.5-32.1,24.1-39.6,32.1
	C508.9,251.5,484.8,238.4,479.3,235.1z"/>
<path class="st8" d="M469.9,134.4c0.9,1.4,1.9,2.8,2.8,4.1c0,0.5,0,1,0.7,1.1h-0.1h0.1c-0.3,1.1,0.4,2,0.9,2.8
	c5.2,9.7,11,18.9,17.8,27.6c3.1,3.9,5.7,8.2,9.9,11.2c-5.7,6-13.6,6.3-19.5,0.6c-5.8-5.6-9.1-12.7-11.9-20c-2.4-6-5.2-12-5.2-18.7
	C465.3,139.4,466.2,136.1,469.9,134.4z"/>
<path class="st5" d="M501.7,181.5c-4.2-2.9-6.5-7.6-9.6-11.5c-6.7-8.7-12.6-17.9-17.8-27.6c-0.5-0.9-1.2-1.7-0.9-2.8
	c4.2,4.6,8.2,9.3,12.5,13.8c7.2,7.4,15,14.2,23.5,20C507.6,176.6,504.7,179.4,501.7,181.5z"/>
<path class="st5" d="M891.3,209.4c-4.1-3.4-26.4-1.9-46.1,4.1c-30,9.2-61.2,33.1-61.1,79.5c-0.7,5.7-0.2,22.9-0.2,23.2
	c30.6,7.6,87.1,3.7,95.1-4.2C880.9,297.1,895.2,212.6,891.3,209.4z"/>
<path class="st2" d="M789.5,265.4c-2.2,9-3.4,18.2-4.4,27.4c-0.7,5.7-1,23.5-1,23.8c-13.6-7.2-24.3-36.5-25.9-40.6
	c-3.8-10.5-6.5-21.2-7.3-32.4c-0.7-9.8,0-28.1,1.5-37.9c0.6-4,2-7.9,2.1-8.4c6.9,1.7,13.2,4.9,19.6,7.8c9.7,4.4,18.9,9.6,27.3,16.2
	c-2.7,7.7-5.1,15.5-7.2,23.4C792.3,251.6,790.4,258.4,789.5,265.4z"/>
<path class="st15" d="M969.5,373.8c-26.3,1.2-70.9-12.9-79.9-17.2c-4.2-11.9-8-27.3-10.1-39.8c15.6,3.1,29.7,6.2,44.9,11
	C932,339.2,964.8,369.8,969.5,373.8z"/>
<path class="st1" d="M967.2,372.7c-4.7-4-9.8-7.6-14.4-11.8c-10.3-9.1-19.2-19.3-26.8-30.7c0.8,0.2,1.6,0.3,2.4,0.6
	c15.9,5.1,31.7,10.3,47.7,15.3c13.4,4.2,27.1,7.7,41,9.9c4.1,0.7,8.1,1.4,12.2,2.2c-11.5,6.7-24,10.6-37.1,12.9
	C983.9,372.4,975.6,373.1,967.2,372.7z"/>
<path class="st14" d="M880,318c2.1,12.5,6.4,25.7,10.6,37.7c-31.8-15-78.1-37.8-106.5-39.6C786.9,315,849.1,307.6,880,318z"/>
<path class="st16" d="M1063.6,323.6c-12.9-3.7-25.4-8.3-37.2-14.6c3.8-8.2,7.8-16.3,10.2-25.1c0.5,0.2,1,0.4,1.5,0.6
	c11.1,6.1,22.7,10.3,35.4,11.1C1071.8,305.5,1068.6,314.9,1063.6,323.6z"/>
<path class="st17" d="M1075.3,279.3c-19.2-0.1-31.9-8-39.9-26.8c2.9-1.2,6-0.5,8.9-0.3c4,0.2,7.9,0.4,11.8-0.1
	c4-0.5,8.1,0.2,12.2-0.6c1.6-0.4,3.2-0.9,4.9-0.6c0.9,5.3,2.2,10.6,2,16.1c0,1.3-0.4,2.7,0.3,4c0,1,0,1.9,0.1,2.9
	c-0.5,0.6-0.5,1.1,0,1.6c0,0.8,0,1.5-0.1,2.3c0,0.1-0.1,0.1-0.1,0.2s0.1,0.3,0.1,0.4C1075.4,278.6,1075.3,279,1075.3,279.3z"/>
<path class="st18" d="M1075.4,271c-0.7-1.3-0.3-2.7-0.3-4C1075.8,268.3,1075.6,269.6,1075.4,271z"/>
<path class="st18" d="M1075.5,275.5c-0.5-0.5-0.6-1.1,0-1.6C1075.5,274.4,1075.5,274.9,1075.5,275.5z"/>
<path class="st18" d="M1075.4,278.3c-0.1-0.1-0.1-0.2-0.1-0.4c0,0,0.1-0.1,0.1-0.2C1075.4,277.9,1075.4,278.1,1075.4,278.3z"/>
<path class="st9" d="M1077.8,250c0.2,0,0.4-0.1,0.6-0.1C1078.3,249.9,1078,250,1077.8,250z"/>
<path class="st10" d="M1208,117.9c-2.4,0-4.8,0-7.3,0c-3.7,3.8-26.4,15.5-41.8,17.3c-9.2,1.1-18.2,3.2-26.5,7.8
	c-7.1,4-12.9,9.3-16.7,16.6c2.3,1.3,4.5,2.5,6.8,3.8c17.6,10,33.4,22.1,46.4,37.7c0.2-0.1,0.4-0.1,0.4-0.3
	c17.7-15.9,30.7-34.8,36.4-58.2c0,0,0,0,0,0C1207.7,134.5,1209.4,126.3,1208,117.9z"/>
<path class="st16" d="M1001.3,291.7c-3.4-1.3-5.6-4.2-8.2-6.5c-4.8-4.1-9-8.8-13.1-13.6c-9.1-10.9-17-22.6-22.9-35.6
	c-1.1-2.4-2.7-4.7-2.7-7.5c11.8,4.7,23.6,9.7,35.7,13.5c0.8,0.2,1.5,0.7,2.3,1c-0.5,15.3,4.3,28.8,13.5,40.9
	C1004.9,286.9,1003,289.2,1001.3,291.7z"/>
<path class="st2" d="M1001.3,291.7c1.7-2.5,3.6-4.8,4.6-7.8c0.4-0.4,0.9-0.7,1.2-1.1c6.1-10.4,12.1-20.8,15.5-32.4
	c3.8,0.4,7.5,0.8,11.3,1.2c0.7,0.1,0.9,0.5,1.1,1.1c-0.4,7.8-3,15-5.6,22.2c-0.8,2.2-0.5,3.6,1.5,4.9c2,1.3,4.2,2.3,5.8,4.2
	c-2.4,8.8-6.3,16.9-10.2,25.1c-8.7-4.2-16.5-9.9-24.2-15.6C1001.6,293,1001.3,292.4,1001.3,291.7z"/>
<path class="st5" d="M473.4,139.6c-0.7-0.1-0.7-0.5-0.7-1.1C473.1,138.7,473.4,139.1,473.4,139.6z"/>
<path class="st16" d="M1048.1,172.2c1.7-1,3.6-1,5.3-1.4c13.9-3,26.1-8.9,35.6-19.7c0.3-0.3,0.7-0.6,1.1-0.8
	c1.6,6.7,3,13.5,1.7,20.5c-0.2,1-0.1,2-0.1,3l0,0c-0.4,0.2-0.4,0.3,0,0.6c-1.8,5.3-2.3,5.9-7.6,5.6c-9-0.5-17.7,0.8-26.2,3.5
	c-5.1,1.6-6.9,0.6-8.5-4.4C1048.7,176.8,1048.1,174.6,1048.1,172.2z"/>
<path class="st1" d="M1091.8,174.3c-0.4-0.2-0.4-0.4,0-0.6C1091.8,174,1091.8,174.1,1091.8,174.3z"/>
<path class="st8" d="M754.5,197.4c-2.2,41.5,4.9,103.7,29.6,119.3c-0.6,3.6-17.4,7.1-22.6,4.7C741.3,311.8,737.5,216.7,754.5,197.4z
	"/>
<path class="st1" d="M679.4,266c15.8,13.7,23.6,31.5,25.8,52c-3.8,1.3-7.6,2.7-11.6,3.4c-1.2-0.1-0.8-0.9-0.8-1.6
	c0.4-9,0.2-18-2.1-26.9c-2.2-8.6-5.5-16.7-11.4-23.5c-0.7-0.8-1.5-1.7-1.6-2.9C678.1,265.9,678.7,266,679.4,266z"/>
<path class="st19" d="M602.4,226.5c-0.5-6.8-1-13.7-2.2-20.4c-0.2-1.3-0.1-2.6-0.1-3.9c2.5-1.4,5.2-2.2,7.9-3.1
	c0.3,3.5-0.6,7,0.5,10.4c-2.3,2-1.7,4.6-1.5,7c0.3,2.3,0.3,4.6,0.4,6.9C605.7,224.4,604,225.4,602.4,226.5z"/>
<path class="st8" d="M904.1,211.9c-7.3,60.1,14.3,105.3,18.4,112.5c0.3,0.5-39.9-10.2-43.6-12.5c-2.7-39.9,5.8-85.4,12.4-102.5
	C897,207.6,903.8,211.2,904.1,211.9z"/>
<path class="st2" d="M922.5,327.2c-2.1-6.4-17.3-35.8-19.6-57.5c-1.1-7.4-1.9-18.7-1.7-26.2c0-0.9,1.4-27.6,2.9-31.6
	c0,8.6,2.8,37.6,4.3,42.1c16.1,46.1,75,90.2,75.1,90.4C981,349.2,925,329.7,922.5,327.2z"/>
<path class="st10" d="M1002.3,117.9c-36.5,0-118.9,0-120.1,0c-21.6,14.5-24.4,17.4-33.5,26.7c-32.1,33.1-55.4,83.4-59.2,120.8
	c17.8-31.8,47.6-48.9,55.7-51.9c2.8-1.1,22.6-9,48.5-10.1c13.9-0.5,71.2,27,75.8,26.8c4.7,0.8,57.1-81.6,56.3-91.3
	C1020.3,126.9,1004.9,119,1002.3,117.9z"/>
<path class="st18" d="M1073.5,249.9c-44.2,13.5-155.8-40.8-169.4-38c-4.6,70.3,49.1,117.5,77.7,131.8c7.2,4,45,13.2,52.9,11.4
	C1073.9,339.1,1084.8,279.3,1073.5,249.9z"/>
<path class="st17" d="M931.4,173.7c-0.2,0.5-0.6,0.6-1.1,0.6C930.5,173.9,930.9,173.7,931.4,173.7z"/>
<path class="st9" d="M929.2,174.9c-0.2,0.2-0.4,0.3-0.6,0.5C928.8,175.2,929,175.1,929.2,174.9z"/>
<path class="st20" d="M558.7,281.6c-0.2,0.2-0.4,0.4-0.6,0.6c0-0.4,0-0.7,0.1-1.1C558.4,281.3,558.6,281.4,558.7,281.6z"/>
<path class="st0" d="M429.1,321.9c-4.3,2-30.8-107-33-111.8c38.5,1.5,86.4,24.4,117.3,46.2C512,265.9,462.1,306.1,429.1,321.9z"/>
<path class="st21" d="M479.3,238.2c6.4,2.7,13.3,5.9,18.8,10c3.3,2.4,9.8,5,14,8c-3.7,5.3-35,35.4-43,39c-1-8-7-25.5-6.4-27
	C465.1,265.8,477,246.9,479.3,238.2z"/>
<path class="st11" d="M426.9,216.1c0.2,0,0.3,0.1,0.5,0.1c9.8,10.6,18.8,21.8,26.1,34.2c3.4,5.7,6.6,11.4,8.6,17.7
	c-9.4,9.8-24.1,9.7-30.6-4.7C423.5,249.1,427,224.5,426.9,216.1z"/>
<path class="st22" d="M462.1,268.2c-2-6.3-5.2-12.1-8.6-17.7c-7.4-12.4-16.3-23.6-26.1-34.2c7,1.5,13.7,4.1,20.4,6.6
	c10.4,3.9,20.4,8.6,30.2,13.6c0.7,0.4,1.6,0.6,2,1.4c-2.3,8.6-5.5,16.8-11.1,24c-1.8,2.3-3.9,4.4-6.2,6.3
	C462.5,268.2,462.3,268.2,462.1,268.2z"/>
<path class="st0" d="M352.1,209.9c8.6-0.8,18.4-1.4,27-1c0,0.7-4.5,59.3-3.7,67.2c2.1,25.3,22,28.2,30.8,21.1
	c0.7,4.9-2,8.8-4.4,12.6c-7.4,11.6-13.9,23.2-40.2,39.4c0.9-8.6,3.1-50,2.8-62C364.2,285.4,358.9,225.4,352.1,209.9z"/>
<path class="st6" d="M364.1,280.9c5.7,10.7,3.3,65.5-2.7,68.3c-20.3,9.3-67.7,4.9-86.6,1.7c16.2,2.7,40.7-13.3,50.2-24.7
	c5.4-6.5,7.6-18.2,12-23.6C344.1,294.2,356.4,290.8,364.1,280.9C365,282.5,356.8,290.3,364.1,280.9z"/>
<path class="st23" d="M419.9,272.4c-1.1,3.4-7.3,20.6-13.8,25.5c-0.7,0.6-25.4-84.2-26.8-88.9c5.6-0.2,11.2,0.2,16.8,1.1
	c2.2,4.8,4.4,9.6,6.6,14.4c5.8,12.5,10.4,25.5,14.1,38.8C417.6,266,419,269.6,419.9,272.4z"/>
<path class="st6" d="M361.4,349.2c28.3-22.2,47.2-47.3,45.9-59.2c6.1-1.6,11.5-14.5,12.2-18.4c5.8,13.3,9.2,42.8,9.5,50.3
	c-15.4,9-31.6,16.3-48.4,22.1C374.4,346.2,368,348.1,361.4,349.2z"/>
<path class="st3" d="M334.5,303.9c1-10.3-2.8-72.4-7.7-92.7c8.4-0.6,16.7-1.8,25.1-1.8c6.4,12.7,11.1,39.4,12.2,70.6
	C365.6,286.2,342.6,304.1,334.5,303.9z"/>
<path class="st11" d="M379.3,209c6.5,1.6,49.4,96.1,14.8,97.9C359.2,308.7,375.4,210.4,379.3,209z"/>
<path class="st23" d="M294.2,295.5c-0.7,0-10.9,6.9-18.3,7.2c2.9-14.2,2.4-29,2.8-43.4c0.3-11.9-0.4-23.7-1.6-35.5
	c7.4-3,15.7-5.6,23.7-7C302.7,249.3,295,291.7,294.2,295.5z"/>
<path class="st24" d="M277.1,223.8c3.4,21,1.7,74.6-1.1,78.9c-21.9,7.7-22.6-9.2-22.8-15.1c-0.4-11.1,3-21.4,7-31.5
	c4.4-11.3,10-22,16.5-32.1C276.7,223.8,276.9,223.8,277.1,223.8z"/>
<path class="st13" d="M328.1,212.1c6.8,28.3,17.6,73.4,6,100.8c-5.5,13-28.5,44.9-50.9,38c-2.1-6.2,21.9-16,26.8-19.6
	c11.7-8.7,17.9-17.8,21.2-31.8c2.4-10.4-5.8-87-5.5-87.1C326.1,212.3,327.7,212.1,328.1,212.1z"/>
<path class="st23" d="M325.6,212.4c2,5.9,2.3,12.6,3.2,18.7c2.6,17.1,5.7,34.5,5.2,51.8c-0.2,7.6-1.6,14.9-4.2,22.2
	c-9.9,2-13.8-4.8-15.8-11.6c-3-10-2.8-20.3-1.9-30.6c1.5-16.6,6.1-32.4,11.8-47.9C324.3,214.2,324.8,212.8,325.6,212.4z"/>
<path class="st4" d="M1211.3,281.5c-0.1,0.7-0.5,1-1.2,1.1C1210.3,282.1,1210.6,281.6,1211.3,281.5z"/>
<path class="st4" d="M1212.5,279.9c0,0.5-0.1,1-0.6,1.1C1211.8,280.5,1212,280.1,1212.5,279.9z"/>
<path class="st10" d="M1205.2,172.1c-0.5-0.2-0.6-0.7-0.6-1.2C1205,171.2,1205.3,171.6,1205.2,172.1z"/>
<path class="st4" d="M1211.8,281c-0.2,0.2-0.4,0.4-0.5,0.6C1211.5,281.4,1211.7,281.2,1211.8,281z"/>
<path class="st5" d="M753.2,199.5c0.3-0.2,0.5-0.4,0.8-0.6C753.7,199.1,753.4,199.3,753.2,199.5z"/>
<path class="st2" d="M1065,222.4c-0.4-0.2-0.7-0.6-0.7-1C1064.9,221.5,1065,221.9,1065,222.4z"/>
<path class="st10" d="M1155.7,233.5c0-0.2,0-0.4,0-0.5c0,0.1,0.1,0.2,0.1,0.4C1155.9,233.4,1155.8,233.5,1155.7,233.5z"/>
<path class="st10" d="M1155.7,231.9c0-0.2-0.1-0.4-0.1-0.6c0.1,0.1,0.2,0.2,0.2,0.4C1155.8,231.7,1155.7,231.8,1155.7,231.9z"/>
<path class="st2" d="M578.7,286.6c26.3,5,78.1-2.7,84.4-11.5c4.9-2.9,9.8-5.7,14.7-8.6c10.4,9,19.2,37.9,15.8,55.9
	c0,0.7-27.3,5.5-41.2,7.2c-16.5,2.1-33.1,2.8-49.8,2.2c-21.7-0.3-36.9-3.6-39.5-3.9C565.3,313.7,571,298.8,578.7,286.6z"/>
<path class="st7" d="M563.1,329.3c-9.2-8.3-5.2-43.9-4.6-48.9c7.6,0,18.1,5.5,21.3,6.5C572,299.2,565.3,315.3,563.1,329.3z"/>
<path class="st5" d="M575.1,228.9c-4.9-1.7-12.1-3.1-16.9-5c-39.4,25.1-67.7,59.5-80.8,70.7c-0.8,6.5,63.6,32.9,83.7,32.3
	C555.1,294.2,556.4,270.4,575.1,228.9z"/>
<path class="st5" d="M732.1,189.2c0.7,0.5-14.1,23.3-21.6,32.2c-10.9,13.2-24.7,23.9-38.4,34.3c-10.3,7.8-21.2,14-34.6,14.4
	c-6.7,0.2-12.5-1.4-17-6.3c-4.6-5.1-7.5-11-7.9-17.9c2.6,5.1,5.6,9.8,10.3,13.4c9,6.9,18.7,6.7,28.7,2.5
	c12.3-5.1,22.4-14.2,31.9-23.3c15.1-14.6,26.4-32.6,36.5-50.9C723.8,186.8,729.7,187.7,732.1,189.2z"/>
<path class="st8" d="M660.7,254.3c-10,11.9-34.3,12.2-44.3-4.3c0.8-0.4,14.8-3.4,21.9-3C645.7,247.9,653.8,249.8,660.7,254.3z"/>
<path class="st20" d="M559.1,280.9c-0.7,10.9,0.3,37.3,3,47c-4.3-0.5-10.1-1-14-3C548.3,307.6,555.2,282.1,559.1,280.9z"/>
<path class="st25" d="M599,202.7c-27.7-1.2-62.8-11.7-85.9-26.9c-3,3.1-5.9,6.2-8.9,9.3c3.6,3.4,7.6,7.1,11.2,10.5
	c11,10.3,31.6,30.9,59.2,34.7c3.9-5.8,12.3-19.1,22.7-26.5C598.4,203.1,599,202.7,599,202.7z"/>
<path class="st19" d="M716.4,187.3c-7.4,0.7-17.9,3.1-25.1,4.6c-12.8,2.6-25.3,6.3-37.7,10.2c-41.5,13.3-78,44.4-80.9,52.8
	c-1.3,3.9,26.7-13.9,65.7-7.3c7.3,0.9,15.6,3.7,22.2,7C687.8,242.9,716.2,193.9,716.4,187.3z"/>
<path class="st14" d="M716.8,187.5c-7.5-1.7-18.8-2.1-26.4-2.4c-13-0.5-26,0.3-38.9,2.1c-14.9,2.2-41.8,7.7-52.5,14.6
	c-18.7,12-42.9,52.4-40,78C591.2,207.4,709.6,188.2,716.8,187.5z"/>
<path class="st3" d="M638.4,247.5c-10.3-3.1-36.9-1.1-37.2-1.1h-0.1l0,0c-17.7,1-37.1,10.5-40.8,31c3.6,0.4,9-2,12.6-2
	c12,0.1,21.1-4.9,25.8-13.6C602.2,251.8,626.9,247.8,638.4,247.5z"/>
<path class="st5" d="M754.5,197.4c0,0.9-17.4,67.5-3.9,101.1c-10.6,6.6-24.3,11.7-35.9,16.2c-3.1,1.2-6.3,2.2-9.4,3.3
	c-2.3-20.5-9.4-37.7-25.3-51.5c10.6-7.4,34.5-27,51.7-48C739.7,208.7,747.3,202,754.5,197.4z"/>
<path class="st8" d="M608.4,226.1c5.6,32.6,17.6,54.5,55.1,32.6c17.2-10.1,64.8-60.4,68.6-69.3c0,0,6,0.4,22.3,8
	c-6.4,10.2-54.7,56.3-74.5,69.2c-36.1,23.4-91.4,31.2-122.2,11c31.6-6.1,48.9-22.5,44.1-47C601.9,230.1,606.8,227.1,608.4,226.1z"/>
<path class="st26" d="M1120.8,296.1c0,0.4,0,0.8,0,1.2C1120.3,296.9,1120.3,296.5,1120.8,296.1z"/>
<path class="st26" d="M1120.7,298.8c-0.1,0.2-0.2,0.5-0.3,0.7C1120.5,299.3,1120.6,299.1,1120.7,298.8z"/>
<path class="st18" d="M1060.6,248.7c37.8,1.1,99.8-32.4,108.3-47.6c-82.9-103.9-235.2-80.1-275.2,2.3
	C920.7,206.9,983,246.5,1060.6,248.7z"/>
<path class="st17" d="M1112.3,239.2c-5.3,3-79.1,12.3-97.1,5c-22.7-7.7-105.2-34.2-108.9-36.7c1.6-10.9,9-26.7,24.5-37.6
	C966.8,144.7,1059,148.9,1112.3,239.2z"/>
<path class="st10" d="M1144.8,298.4c0.5,0,0.9,0,1.2,0.5C1145.5,298.9,1145.1,298.8,1144.8,298.4z"/>
<path class="st2" d="M1078.7,243.8c-4.3,2.6-44.8,6.5-47.9,4.1c-14.2-0.2-59.4-17.7-78.2-23c-18.8-5.3-43.2-16.6-46.3-18.7
	c1.4-9.2,11-28.3,24.5-36.3C958.3,153.6,1022.3,152.2,1078.7,243.8z"/>
<path class="st23" d="M731.4,158.4c4-22.6-2.7-32.9-5.6-40.5c-2,0-4.1,0-6.1,0c1,2.3,2,4.6,2.9,6.9c3.4,8.4,4.7,17.2,3.6,26.2
	c-3.3,27.6-17.7,63.4-57.4,96.8c-18.4,17.9-40.4,16.8-49.7,4.7c-1.9-2.1-3.5-4.4-4.4-7.1c-3.5-7.7-4.9-15.8-4.9-24.1
	c0-3,0.4-5.5,0.3-8.5c0-1.1-0.2-3.3-1.5-3.3s-1.7,2.9-1.5,7c0.1,2.3,1.5,17.8,4.2,25.1c2.7,7.4,5.4,13,10.9,17.5
	c5.5,4.6,16.5,8.9,29.9,3s21.5-14.5,31.5-23C703.7,221.8,727.5,181,731.4,158.4z"/>
<path class="st14" d="M472.7,297.7c1.2-1.6,1.8-2.7,3.3-4.1c1.4,1.1,4.9,3.2,5.9,3.8c16.8,10.2,34.7,18,53.6,23.5
	c21.5,7.5,54.9,10.5,67.1,10.9c16.7,0.6,33.3-0.1,49.8-2.2c91.7-14.4,114.4-59.5,127.5-45c3.5,5.9-6.4,12-8.1,13.1
	c-12,9.5-58.3,25.5-71.4,29.3c-8.9,2.6-18,4.7-27.1,6.4c-7.4,1.4-15,1.8-22.6,2.5c-7.6,0.7-15.2,1.2-22.8,1.2
	c-8.2,0-16.4,0.2-24.6-0.6c-5.2-0.5-10.5-0.7-15.7-1.2c-10.5-0.9-20.9-2.6-31.2-4.7c-17.2-3.6-34-8.7-50.2-15.6
	C495.4,310.4,482.8,303.8,472.7,297.7z"/>
<path class="st5" d="M915.6,273.5c9-16.6,21.8-36.2,35.6-49.2c1.4,0.5,2.9,1.1,4.3,1.6c-10.9,9.1-36.3,51.8-37.1,53.4
	C917.4,277.7,915.6,273.6,915.6,273.5z"/>
<path class="st1" d="M1208.1,117.8c1.4,8.4-0.4,16.6-2.3,24.7c-2.7,11.1-9.7,26.3-17.3,37.2c-8.4,12-17.3,19.2-19.1,21
	c-3.4,3.6-20.3,15.5-28.1,20c-12.7,7.2-25.9,11.8-39.4,17.2c-17.2,6.8-52.9,8.8-61.3,8.3c-15.6-1-31-3.7-46-8.2
	c-6.2-1.8-37.7-15.8-58.4-23.5c-20.9-7.8-40.5-11.2-51.4-12.1c-17.7-1.4-41.3,4.4-39.6,11.1c1.3,5.1,14.3,5.1,26.2,0.3
	c11-4.4,29.3-2.4,36.3,0c7,2.3,16.3,3.4,31.7,8.6c23.1,7.8,65.6,28.4,96,30.1c14.4,0.8,32.1-0.9,40.2-1.7c8.1-0.8,14.9-3,28.4-6.6
	s27.8-10.3,40.8-17.4s37.9-27,48.8-41.4c10-13.2,16.4-30.4,18.8-38.2c2.4-9.6,4.3-19.3,4.1-29.3
	C1213.7,117.8,1210.9,117.8,1208.1,117.8C1209.5,126.2,1210.9,117.8,1208.1,117.8C1209.5,126.2,1210.9,117.8,1208.1,117.8z"/>
<path class="st20" d="M820.2,227c5.4,4.6,9.9,10,14.4,15.4c7.4,8.8,12.9,18.8,18.8,28.6c0.9,1.5,1.8,3,3.1,4.3
	c3.2,3.2,5.5,3.4,8.8,0.1c3-3.1,5.6-6.4,8.4-9.6c1.9-2.2,3.8-4.3,5.8-6.4c6.9-7,14.2-13.8,21.8-20.1c0.9-0.6,2.7-2.5,3.5-3.1l0.5,4
	c-1.5,1.4-3.1,3.1-4.7,4.6c-6.9,5.2-13,11.3-19,17.5c-9,9.7,7.4,30.2,12.5,33.8s13.3-3.3,21.5-22.6c1,1.7,2.9,5.9,2.9,5.9
	c-13.9,25.8-23.3,28.9-29.7,22.5s-11.6-22.4-13.9-25.4c-0.8-1.8-2-2.7-3.8-0.9c-1.2,1.2-2.7,2.3-3.9,3.5c-2.3,2.2-5,3.6-8.1,4.1
	c-4.8,0.9-8.5-1.2-11.1-5.2c-6.6-10.2-12.1-21.1-19.9-30.5c-4.3-5.1-8.3-10.4-13.6-14.7c-3.7-4.7-8.4-8.1-13.2-11.5
	c-8.4-6.5-17.7-11.7-27.3-16.2c-6.4-2.9-37.6-14.6-41.9-15.7c1.6-2.4,2.1-3.3,2.8-4.2c9.2,1.9,17.4,4.3,26.5,6.8
	c6.4,2.6,12.9,5,19.2,8c8.5,4.1,16.7,8.8,24.4,14.3C810.2,218.6,815.4,222.6,820.2,227z"/>
<path class="st24" d="M553.7,221.3c52.6-33.2,119.5-50,181.1-36c-1,1.6-1.4,2.4-2.7,4.1c-8.2-1.8-25.3-2.7-34.3-3
	c-26-1-59.9,2.6-84.5,10.9c-17.9,6-34.8,14.2-50.7,24.3c-4.8,3.1-18.8,12.3-29.9,21.4c-6.3,5.1-11.3,11-14.1,13.8
	c-0.4,0.4-4.8-2.4-4.9-2.9C525.3,241.2,539.7,231.3,553.7,221.3C564.9,214.2,548.8,224.8,553.7,221.3z"/>
<path class="st23" d="M378,171.7c8.9,0.8,17.5-0.4,26.2-2c6.3-1.2,12.2-3.6,18.1-6c5.4-1.9,10.2-4.9,14.9-7.9
	c6.8-4.3,13-9.5,18.9-14.9c8-7.3,15.5-14.8,22.6-23c1.3,0,2.6,0,3.9,0c-0.5,0.6-0.9,1.2-1.4,1.7c-2.5,2.9-2.1,4.7,1.6,5.9
	c3.2,1.1,6.6,1,9.9,1c8.8-0.1,17.5-1.5,26.1-3.6c5.4-1.3,10.8-2.4,15.8-5c3.7,0,7.5,0,11.2,0c0,1.1-0.9,1.4-1.7,1.6
	c-4.5,1.7-9,3.6-13.6,5c-14.5,4.4-29.5,6-44.6,5.7c-3.6-0.1-7.2,0.5-10.7,1.3c-1.9,0.5-4.4,0.5-5.4,2.8c-3.7,1.8-4.5,5.1-4.6,8.7
	c0,6.7,2.8,12.7,5.2,18.7c2.8,7.3,6.1,14.4,11.9,20c5.9,5.7,20.5,1.5,36.3-20.1c10.6-14.3,21.3-28.5,33.9-41.2
	c0.7-0.7,1.7-1.3,1.7-2.5c1.5,0,3,0,4.5,0c-0.6,2.4-2.7,3.8-4.2,5.4c-12.5,13.3-39.6,54.9-51.3,63.1c-6.9,4.8-14,7.6-22.1,2.5
	c-0.5-0.3-10.5-4.3-15-5.6c-14.2-3.9-28.7-4.8-43.3-4.6c-7.5,0.1-14.8,0.7-21.9,3c-1.4,0.5-2.9,0.6-3.5-1.1c-0.6-1.8,0.8-2.4,2.2-3
	c5.3-2,11-2.1,16.4-2c5.5,0,11,0.2,16.6,0.7c10.2,1,20.3,2.1,30.2,4.5c4.7,1.1,9.3,2.3,14.5,3.6c-2.1-3.6-4-6.6-5.6-9.8
	c-4.1-7.7-7.8-15.6-10.9-23.8c-1.5-4-3.9-4.6-7-2c-13.4,11.2-27.8,20.4-45,24.7c-12.1,3.1-36.5,5-54.3-0.6
	c-16.9-5.4-31.7-13.5-44.8-25.2c-8.8-7.9-24.2-28.6-24-30c3.2,0,6.3,0,9.5,0C311.7,144.9,346.6,169,378,171.7z"/>
<path class="st23" d="M357,358.6c-32.4,8.5-87.8,10.4-127.6-17.9c-34.9-24.9-58.6-59.2-63.1-101.8c-2.5-23.2,12.9-95,28.1-121h9.5
	c-28.2,64.2-42.4,157.4,16.9,205.6c50.8,41.2,128.1,38.4,192.6,5.8c28.7-12.3,64.9-38.4,99.6-74.8c0.6-0.6,4.8,2.9,4.8,2.9
	C492,290.1,414.1,343.7,357,358.6z"/>
<path class="st19" d="M214.1,272.9c-2.5,3.5-6.1,24.8-14,17c-21.2-20.7,38.7-57.8,64.2-68.9c53.8-23.4,132.5-31.8,208.2,8.1
	c29.7,15.6,56.7,36.1,88,48.5c16.3,6.5,31.9,9.9,49.6,9.3c13.3-0.4,42.6-14.4,53-11.8c2.9,9.2-41.7,15.6-59,15
	c-29.9-0.9-42.7-6.9-62.5-17.1c-35.9-18.3-81-46.1-114.7-56.9C340.6,200.4,257.6,213.4,214.1,272.9z"/>
<path class="st13" d="M336.5,157.6c-3.6-0.8-18-5-16.9-12.1c5.5-1.9,15,6.7,20.8,8.3c8.5,2.2,24-0.4,34.2-6.3
	c12.3-7.2,20.3-17.9,28.2-29.5c1.9,0,3.7,0,5.6,0c-3,5.8-7.1,10.8-11.3,15.8c-7.1,8.3-15.4,14.9-25.2,19.9
	C358.1,160.6,340.1,158.4,336.5,157.6z"/>
<path class="st10" d="M880,318c-21.8-4.4-72.7,4.9-72.7-4.5s28.6-6.7,41.3-5.9c10.2,0.6,20.3,2.2,30.3,4.2c3.1,0.7,6.1,1.4,9.2,2.1
	c11.2,2.8,22.2,6.3,33.2,9.8c16.1,5.7,32.3,11.4,48.6,16.6c3.9,1.2,7.7,2.7,11.7,3.4c7.3,2.6,15,4.2,22.5,6c9.2,2.1,29.9,5,30.6,5.2
	c-1.4,1.5-3.7,2.3-5.5,3.3c-4.1-0.7-8.3-1.5-12.4-2.2c-13.9-2.3-27.6-5.7-41-9.9c-15.9-5-31.8-10.2-47.7-15.3
	c-0.8-0.3-1.6-0.4-2.4-0.6C910.8,325.5,895.5,321.1,880,318z"/>
<path class="st5" d="M1071.2,244.5c-9.5-28.1-44.4-40.2-57.8-40.4c-11.8-0.2-23.2,2.6-34,7.3c-7.7,3.4-13.4,6.7-19.8,12.2l-5.1-2
	c8-6.2,15.8-10.6,25.2-14.4c0.4-0.2,0.9-0.4,1.2-0.6c0.4-0.3,0.8-0.6,0.5-1.1c-0.2-0.2-0.6-0.4-0.9-0.4c-0.9,0-1.9,0.1-2.8,0.2
	c-5,0.8-10,2.1-14.8,3.7c-6.9,2.3-34.2,11.4-57.6,31.2l-0.5-4c20.5-19.2,31.4-21.4,42.2-26.2s35.2-15.3,69-11.1
	c21.3,1.5,52.5,19,61.1,44.8C1077.1,243.7,1074.6,244.5,1071.2,244.5z"/>
<path class="st12" d="M1102.5,165.5c3.2-1.3,5.7-3.6,7.5-6.4c8.8-13.8,22.2-21,37.2-25.8c9.2-2.9,18.6-5.2,27.7-8.5
	c0.5-0.2,11.5-4.9,13.5-6.9c2.7,0,10.2,0,12.3,0c-3.3,4-16.7,10.8-17.4,11.1c-7.1,2.7-16.9,4.8-24.4,6.2c-9.1,1.7-18.3,3.3-26.5,7.8
	c-7.1,3.9-14.1,12-16.7,16.6c-2.6,4.6-9,9.2-14.7,10.9c-3.5,1.1-5.6,3.7-6.7,7.3c-1.9,5.8-3.3,6.5-9.5,5.7c-6-0.8-12-0.5-17.8,1.7
	c-5.4,1-10.4,3.3-15.8,4c-5,0.6-7.7-1.3-8.7-6.3c-1.1-5.3-5.2-20.9-6.1-23.3c-2.7-7.3-5.8-14.4-10.6-20.6
	c-5.1-8-11.9-14.1-20.1-18.8c-1.2-0.7-2.5-1.3-3.5-2.3c4.1,0,8.4,0,12.5,0c3.7,1.3,6.3,2.8,12.2,9.5c5.9,6.7,15.9,26.5,18.1,34.2
	c1,3.5,3.5,15.3,4.3,17.5c1.6,5,3.4,6,8.5,4.4c8.5-2.7,17.2-4.1,26.2-3.5c5.3,0.3,5.8-1.3,7.6-6.2
	C1093.4,168.9,1098.6,167.8,1102.5,165.5z"/>
<path class="st12" d="M1247.7,117.9c2.9,0,6.3,0,8.9,0c16.2,20.8,18.5,73.3,18.7,89.4c1.1,104.6-77.2,152.4-236.2,152.2
	c-0.1-1.2,3.8-3.6,5-3.6c175.1-8.2,229.5-64.9,221.8-175.6C1264.7,163.2,1254.3,129.6,1247.7,117.9
	C1250.6,117.9,1254.3,129.6,1247.7,117.9C1250.6,117.9,1254.3,129.6,1247.7,117.9z"/>
<path class="st27" d="M958.4,376.7c-21-1.4-41-6.7-60.5-14.4c-19.3-7.6-37.7-17.3-56.7-25.6c-13.3-5.9-26.9-11.2-41.3-13.6
	c-13.6-2.3-27.2-2.2-40.6,2c-3.2,1-6.1,2.5-9.1,4c-1.2,0.6-2.3,1.3-3.5,1.5c-1.9,0.3-3.8,0.2-4.8-1.8c-0.4-2.3,2.2-4.8,1.6-4.3
	c3.8-5,29.7-8.7,39.3-8.5c0.3,0,0.6,0,0.9,0.1c0.6,0,1.2,0.1,1.8,0.1c10.8,1.1,21.5,3.3,31.9,6.5c15.6,4.8,30.2,11.9,44.8,19.1
	c9,4.4,17.9,9.1,27.2,12.8c9.1,4.3,18.5,7.7,28.1,10.5c16.2,4.7,32.6,7.8,49.6,7.7c29.2,1,59.6-8.1,80.9-28.6
	c5.3-5.2,15.3-17.2,20.9-31.7c5.5-14.3,6.6-31,6.1-45.5c-0.2-5.5-1.1-10.7-2-16.1c1.6-0.3,3.1-0.6,4.7-0.9c0.2,0,0.4-0.1,0.6-0.1
	c0.1,0,0.3-0.1,0.3,0c3.1,8.7,3.6,42.7,1.8,51.8c-2,10.1-7.9,33.5-40.6,57.3c-5.2,3.8-14.4,7.3-20.5,9.6c-13.3,5.1-27.2,7.2-41.4,8
	C971.5,377,964.9,376.7,958.4,376.7C937.4,375.3,964.9,376.7,958.4,376.7z"/>
</svg>
