<?xml version="1.0" encoding="utf-8"?>
<!-- Generator: Adobe Illustrator 19.0.0, SVG Export Plug-In . SVG Version: 6.00 Build 0)  -->
<svg version="1.1" id="Layer_1" xmlns="http://www.w3.org/2000/svg" xmlns:xlink="http://www.w3.org/1999/xlink" x="0px" y="0px"
	 viewBox="0 0 322 322" style="enable-background:new 0 0 322 322;" xml:space="preserve">
<style type="text/css">
	.st0{fill:#FFDD00;}
	.st1{fill:#00A13A;}
	.st2{fill:#117FCD;}
	.st3{fill:#F9A91F;}
	.st4{fill:#231F20;}
	.st5{fill:#00A650;}
	.st6{fill:#EE2049;}
	.st7{fill:#134785;}
	.st8{fill:url(#path3163_1_);}
	.st9{fill:url(#path3185_1_);}
	.st10{fill:url(#path3207_1_);}
</style>
<g>
	<g>
		<path class="st0" d="M161,317C75,317,5,247,5,161S75,5,161,5s156,70,156,156S247,317,161,317z"/>
		<path class="st1" d="M161,9c40.6,0,78.8,15.8,107.5,44.5C297.2,82.2,313,120.4,313,161c0,40.6-15.8,78.8-44.5,107.5
			C239.8,297.2,201.6,313,161,313s-78.8-15.8-107.5-44.5C24.8,239.8,9,201.6,9,161c0-40.6,15.8-78.8,44.5-107.5S120.4,9,161,9
			 M161,1C72.6,1,1,72.6,1,161s71.6,160,160,160s160-71.6,160-160S249.4,1,161,1L161,1z"/>
	</g>
	<g id="logo" transform="translate(-48.201442,-127.25004)" >
		<g id="g2993" transform="matrix(1.25,0,0,-1.25,-240.6183,1115.2552)">
			<g id="g3411" transform="matrix(1.2715068,0,0,1.2715068,-66.642931,-212.64529)">
				<g id="g3044">
					<g id="g3115">
						<g>
							<g id="g3117">
								<g id="g3123" transform="translate(286.9022,650.9248)">
									<path id="path3125" class="st2" d="M33.2-16.8C32.8-10.8,27.7-6,21.5-6
										C15.1-6,9.8-11.2,9.8-17.7s5.2-11.7,11.7-11.7c0.3,0,0.7,0,1,0c0,0.3,0,0.6,0,0.9c0,0.4,0,0.7,0.1,1.1
										c-0.3,0-0.7-0.1-1.1-0.1c-5.4,0-9.8,4.4-9.8,9.7c0,5.4,4.4,9.7,9.8,9.7c5.2,0,9.4-4.1,9.7-9.2c0-0.2,0-0.4,0-0.5
										c0-0.5-0.1-1-0.1-1.5c-0.6-3.6-3.1-6.6-6.5-7.7c-0.1-0.5-0.1-1-0.1-1.5c0-0.2,0-0.4,0-0.5c4.7,1.2,8.2,5.3,8.7,10.2
										c0,0.4,0.1,0.7,0.1,1.1C33.2-17.4,33.2-17.1,33.2-16.8"/>
								</g>
								<g id="g3127" transform="translate(297.7045,638.6206)">
									<path id="path3129" class="st3" d="M33.2-16.7c-0.3-5.1-4.5-9.1-9.7-9.1
										c-5.2,0-9.4,4.1-9.7,9.2c0,0.2,0,0.4,0,0.5c0,0.5,0.1,1,0.1,1.5c0.6,3.6,3.1,6.6,6.5,7.7c0.1,0.5,0.1,1,0.1,1.5
										c0,0.2,0,0.4,0,0.5c-4.7-1.2-8.2-5.3-8.7-10.2c0-0.4-0.1-0.7-0.1-1.1c0-0.3,0-0.6,0-0.9c0.5-6,5.5-10.8,11.7-10.8
										c6.2,0,11.2,4.7,11.7,10.8C34.4-17,33.8-16.9,33.2-16.7 M22.4-6.5c0,0.4,0.1,0.7,0.1,1.1c0,0.3,0,0.6,0,0.9
										c0.3,0,0.7,0,1,0c0.3,0,0.7,0,1,0c0.7-0.1,1.3-0.2,1.9-0.3c4.7-1.2,8.3-5.3,8.7-10.3c-0.7,0.1-1.4,0.2-2,0.4
										C32.5-11,29.9-8,26.5-6.9c-0.7,0.2-1.3,0.4-2,0.4c-0.3,0-0.7,0-1,0C23.1-6.4,22.7-6.4,22.4-6.5"/>
								</g>
								<g id="g3131" transform="translate(312.3561,650.9569)">
									<path id="path3133" class="st4" d="M33.1-16.8c-0.5,6-5.5,10.7-11.7,10.7
										c-6.2,0-11.2-4.7-11.7-10.8c0.7-0.1,1.3-0.2,1.9-0.3C12-12,16.3-8,21.4-8c5.2,0,9.4-4,9.7-9.1c0-0.2,0-0.4,0-0.6
										c0-0.5-0.1-1-0.1-1.5c-0.6-3.6-3.1-6.6-6.5-7.8c-0.1-0.5-0.1-1-0.1-1.5c0-0.2,0-0.4,0-0.6c4.7,1.2,8.2,5.3,8.7,10.3
										c0,0.3,0,0.7,0,1C33.2-17.4,33.1-17.1,33.1-16.8 M22.5-27.4c0-0.3,0-0.7,0-1c0-0.3,0-0.6,0-0.9c-0.3,0-0.7,0-1.1,0
										c-0.3,0-0.7,0-1,0c-0.7,0.1-1.3,0.2-1.9,0.3c-4.7,1.2-8.3,5.3-8.7,10.3c0.7-0.1,1.4-0.2,2-0.4c0.6-3.7,3.2-6.7,6.6-7.8
										c0.7-0.2,1.3-0.4,2-0.4c0.3,0,0.7,0,1,0C21.8-27.5,22.2-27.4,22.5-27.4"/>
								</g>
								<g id="g3135" transform="translate(323.1744,638.6498)">
									<path id="path3137" class="st5" d="M33.1-16.7c-0.3-5.1-4.5-9.1-9.7-9.1
										c-5.2,0-9.4,4-9.7,9.1c0,0.2,0,0.4,0,0.6c0,0.5,0,1,0.1,1.5c0.6,3.6,3.1,6.6,6.5,7.8c0.1,0.5,0.1,1,0.1,1.5
										c0,0.2,0,0.4,0,0.6c-4.7-1.2-8.2-5.3-8.7-10.3c0-0.3,0-0.7,0-1c0-0.3,0-0.6,0-0.9c0.5-6,5.5-10.7,11.7-10.7
										c6.2,0,11.2,4.7,11.7,10.8C34.4-17,33.7-16.9,33.1-16.7 M22.3-6.4c0,0.3,0,0.7,0,1c0,0.3,0,0.6,0,0.9
										c0.3,0,0.7,0.1,1.1,0.1c0.3,0,0.7,0,1,0c0.7-0.1,1.3-0.2,1.9-0.3C31-6,34.6-10.1,35-15.1c-0.7,0.1-1.4,0.2-2,0.4
										C32.4-11,29.8-8,26.4-6.9c-0.6,0.2-1.3,0.4-2,0.4c-0.3,0-0.7,0.1-1,0.1C23-6.4,22.6-6.4,22.3-6.4"/>
								</g>
								<g id="g3139" transform="translate(326.1107,661.7951)">
									<path id="path3141" class="st6" d="M33.1-16.9c-6.2,0-11.2-4.7-11.7-10.8
										c0.7-0.1,1.3-0.2,1.9-0.3c0.3,5.1,4.5,9.1,9.7,9.1c5.4,0,9.8-4.4,9.8-9.7c0-5.4-4.4-9.7-9.8-9.7c-0.3,0-0.7,0-1,0
										c-0.7,0.1-1.4,0.2-2,0.4c-3.5,1.1-6.1,4.1-6.6,7.8c-0.7,0.2-1.3,0.4-2,0.4c0.4-5,4-9.1,8.7-10.3c0.6-0.2,1.3-0.3,1.9-0.3
										c0.3,0,0.6,0,1,0c6.5,0,11.7,5.2,11.7,11.7S39.5-16.9,33.1-16.9"/>
								</g>
							</g>
						</g>
					</g>
					
						<path id="path3219" class="st7" d="
						M303.4,672.7c0.1,1.4,1.2,2.6,2.6,2.6c1.4,0,2.5-1.2,2.4-2.6c-0.1-1.4-1.2-2.6-2.6-2.6C304.4,670.1,303.4,671.3,303.4,672.7
						 M321.9,658.9c-2.8,0-5.6,4.4-5.3,7.3c0.1,1.3,0.8,2.3,2.3,2.3c2.9,0,5.4-4,5.3-6.7C324.1,660.4,323.5,658.9,321.9,658.9
						 M320.7,672.5c-2.4,0.1-4.6-1.2-6.1-3.3c-0.8-1.1-1.8-2.9-3-5c-1.6-2.7-3.1-5.4-4.2-5.4c-0.7,0-0.9,0.7-0.9,1.5
						c-0.1,2.1,0,4.1,0,6.2c0,0.6,0,1-0.4,1.3c-0.6,0.4-2,0.4-2.9-0.7c-1.8-2.3-3.5-4.7-5.5-6.8c-0.8-0.9-1.8-1.5-3-1.5
						c-0.8,0-1.3,0.1-2.2,1.1c-1.1,1.3-2.2,3.6-2.6,4.6c-0.1,0.2,0,0.2,0.1,0.2c4.5,1.3,10.1,4.3,10,10c-0.1,3.9-3,6.4-6.9,6.5
						c-4.4,0.1-8.7-2-11.2-5.6c-4.2-6-3.4-13.8-2.2-19.1c0.2-0.7,0.7-1,1.3-1c1.5,0,3.3,1.8,2.9,3.3c-2.1,7.9-1.6,12.4,0.5,15.3
						c1.4,2,4,3.2,6.4,3.3c2.6,0,5.4-1.1,5.4-4.2c-0.1-3.8-4.9-4.9-7.9-5.2c-0.8-0.1-1.7-0.4-2.2-1.1c-0.7-0.9-0.6-2.1-0.3-3.2
						c0.6-2,1.5-3.6,2.6-5.4c0.9-1.5,2.6-3,4.5-3.1c2.9-0.1,4.6,1.6,6.2,3.4c1.1,1.2,2,2.3,3,3.6c0.1,0.1,0.1,0,0.1,0
						c0-3.1,0-7,3.6-6.9c2,0,3.3,1.5,4.5,2.9c0.9,1.2,1.8,2.6,2.6,4c0.1,0.1,0.1,0.1,0.1,0c0.8-3.3,3.6-6.7,7.2-6.8
						c4.9-0.1,8,5.2,7.7,9.4C327.7,668.1,324.9,672.4,320.7,672.5 M353.6,658.9c-3.3,0-5.5,2.9-5.5,5.9c0,2.2,1.2,3.8,3.5,3.8
						c3.3,0,5.5-2.9,5.5-5.9C357.2,660.5,355.9,658.9,353.6,658.9 M353.5,672.5c-4.6,0-8.2-3.9-9-8.1c-0.3-1.7-1-2.7-2.2-3.8
						c-1.5-1.3-3.3-1.9-5.3-1.9c-0.9,0-2.5,0.3-2.7,1.5c-0.1,0.7,0.4,1.4,1,1.9c0.9,0.9,1.6,1.5,2.6,2.4c1.6,1.5,3,2.7,4.4,4.5
						c1.5,1.9,2.6,4.1,2.5,6.3c-0.2,3.4-2.7,5.6-6.3,5.6c-2.5,0-4.8-1-6.6-2.6c-0.4-0.3-0.8-0.8-1-1.3c-0.2-0.4-0.3-0.8-0.3-1.2
						c0-0.6,0.6-1.2,1.2-1.2c0.4,0,0.9,0.2,1.4,0.6c1,0.9,2.3,1.6,3.7,1.6c2.6,0.1,3.9-1.6,4-3.4c0.1-1.4-0.6-2.6-1.4-3.6
						c-1.2-1.5-2.3-2.4-3.6-3.6c-1.2-1.1-2.3-2-3.3-3.1c-1.3-1.3-2.3-2.7-2.2-4.5c0.1-2.6,2.8-3.9,5-3.9c3.7,0,7.3,2.1,9.7,4.7
						c0,0,0.1,0.1,0.1,0c1.2-2.8,3.8-4.7,6.8-4.7c5.1,0,9.1,5.1,9,9.8C360.8,668.7,357.7,672.5,353.5,672.5 M384.7,660.5
						c-0.5-1-1.6-1.5-2.7-1.6c-3.2-0.2-5.3,2.5-5.9,5.7c1.3,0.8,2.7,1.3,4.3,1.3c1.5,0,2.9-0.7,3.7-1.7
						C384.9,663.2,385.3,661.7,384.7,660.5 M382.1,669.9c-2.1,0-4.2-0.6-6.1-1.8c0.9,3.4,3.3,6.1,6.5,8c1.1,0.7,2.2,1.3,2.7,2.5
						c0.3,0.7,0.2,1.7-0.7,1.8c-0.6,0-1.3-0.3-1.8-0.6c-5.4-3-9.6-8-10.4-14.2c-1.5-1.4-2.7-2.9-4-4.6c0,0,0,0,0,0v11.3
						c0,0.8-0.5,1.1-1,1.1c-0.5,0-1.2-0.3-1.5-0.6l-2.6-1.6c-0.8-0.5-1.2-1-1.1-1.7c0.1-1.2,1.5-1.4,2.5-0.8l0-12.5
						c0-0.5,0.3-1,0.9-1c0.5,0,1,0.3,1.5,0.8c1.7,1.7,3.5,4,5.6,6c0.8-3.8,3.7-7,7.8-7c4.6,0,8.4,4.4,8.4,8.6
						C388.6,667,385.7,669.9,382.1,669.9"/>
					<g id="g3035">
						<g id="g3143">
							<g id="g3145">
								<g id="g3151">
									<g id="g3153">
										
											<radialGradient id="path3163_1_" cx="238.0423" cy="792.1285" r="0.9966" gradientTransform="matrix(51.6026 -51.5708 -51.7158 -51.4579 29015.2578 53771.6133)" gradientUnits="userSpaceOnUse">
											<stop  offset="0" style="stop-color:#FCD205"/>
											<stop  offset="0.725" style="stop-color:#F47216"/>
											<stop  offset="1" style="stop-color:#F03C1F"/>
										</radialGradient>
										<path id="path3163" class="st8" d="M322.9,765.6c-0.4,0-0.7,0-1.1,0
											c-4.3-0.3-8.4-2.3-12.1-4.9c-11.9-8.2-21.5-23.8-23.5-38.3c-0.9-6.4-0.6-12.8,1.9-18.7c4.5-9.3,15.1-8.7,21.8-4.1
											c3.3,2.3,6.4,5.1,9.4,7.7c0.9,0.8,1.8,1.5,2.7,2.2c2-2.1,4.2-4.3,6.6-6.9c9.8-10.3,20.8-14.3,30.2-14.5
											c12.4-0.2,25.5,8,25.5,21.9c0,12.3-11,23.9-21.5,27.6c-0.9,0.4-1.8,0.7-2.7,0.9c-3.6,1-7.3,1.6-12,1.9
											c-1.6,0.1-1.8,0.1-3.7,0.1c-0.7,0-2.1-0.1-2.3-0.1c-0.4,0-0.7,0.2-0.4,0.8c1.1,3.1,0.4,5.6-2,6.2
											c-2.4,0.6-4.1-1.9-4.8-3.3c-0.4-0.9-1.3-1.4-1.1,0.1c0.7,6.1-0.8,15.7-4.9,19.4C327.1,765.1,325.1,765.6,322.9,765.6z
											 M321.7,762.5c0.2,0,0.4,0,0.6,0c0.5,0,1-0.1,1.5-0.2c6.8-1.6,5.4-20.6,0.5-33.3c-0.7-1.9-1.9-4.3-3.3-7
											c-3,4.7-6.3,9-11.6,12.5c-0.4,0.3-0.7,0.6-0.7,0.9c0,0.7,0.5,0.8,1.1,2.7c0.7,2.2,0.6,4.7-1.8,5.5
											c-1.8,0.6-3.3-0.1-4.4-1.4c-0.3-0.3-0.6-1.1-0.9-0.8c-0.3,0.1,0.2,1.3,0.3,1.6c1.9,5.2,5.1,10.2,9.1,14.3c0,0,0.1,0,0.1,0
											C315.5,760.1,318.5,762.3,321.7,762.5L321.7,762.5z M352.8,734.8c2.2,0,4.3-0.3,6.2-0.7c6.9-1.5,17-6.8,16.7-15
											c0,0,0,0,0-0.1c0,0,0,0,0,0c-0.3-1.9-0.7-2.4-1.9-1.4c-1.2,1-3.2,1.5-4.6,0c-2.5-2.6-0.4-6.1-1.2-10.4
											c-5.5-0.1-12.6,2-18.5,5.3c-7.2,4-11.3,9.5-10.8,14.2C339.3,732.9,346.2,734.9,352.8,734.8z M370.5,731.9
											c0.4-0.4,0.7-0.7,1.1-1.1c0.7-0.8,1.3-1.6,1.8-2.5c-0.5,0.8-1.1,1.7-1.8,2.5C371.2,731.2,370.8,731.5,370.5,731.9z
											 M305.5,721.5c3.4,0.2,6.2-2.1,11.1-6.8c-4.8-7.2-10.9-13.8-15.6-13.7c-2.3,0.1-3.4,1.4-4.3,3c0,0,0,0.1,0,0.1
											c-2.4,6.3,0.3,15.8,7.2,17.1C304.5,721.4,305,721.5,305.5,721.5z M333.1,714c3.6-0.1,7.3-1.7,11.6-5.2
											c2.8-2.3,7.1-6.5,11.4-11.3c-3.8-0.7-8-0.4-11.9,0.3c-2.7,0.7-4.9,1.7-6.8,2.9c-4.3,2.8-7.8,7.1-10.7,11.8
											C328.9,713.5,331,714.1,333.1,714z M319.9,711.7c1.5-1.3,2.9-2.5,4.3-3.7C322.8,709.2,321.3,710.4,319.9,711.7z
											 M340.7,698.7c0.3-0.1,0.6-0.2,0.9-0.2C341.3,698.5,341,698.6,340.7,698.7z M358.6,698.1c-0.4-0.1-0.7-0.2-1.1-0.3
											c-0.4-0.1-0.8-0.2-1.1-0.2c0.4,0.1,0.8,0.2,1.1,0.2C357.8,697.9,358.2,698,358.6,698.1z"/>
									</g>
								</g>
							</g>
						</g>
						
							<linearGradient id="path3185_1_" gradientUnits="userSpaceOnUse" x1="231.4035" y1="790.344" x2="232.3977" y2="790.344" gradientTransform="matrix(47.3151 109.8645 109.8645 -47.3151 -97472.9922 12664.2432)">
							<stop  offset="0" style="stop-color:#005D28"/>
							<stop  offset="0.5" style="stop-color:#66C430"/>
							<stop  offset="1" style="stop-color:#007A38"/>
						</linearGradient>
						<path id="path3185" class="st9" d="M321.8,765.5c-4.3-0.3-8.4-2.3-12.1-4.9l0,0
							c-11.9-8.2-21.4-23.8-23.5-38.3l0,0c-0.9-6.4-0.7-12.8,1.8-18.6l0,0c4.5-9.3,15.1-8.8,21.8-4.1l0,0
							c-17.2-6.5-17.6,19.5-5.8,21.7l0,0c4.5,1,7.3-1.3,13.7-7.5l0,0c6.2-5.6,11.3-9.7,16.3-12.4l0,0c2.9-1.6,6.7-2.9,10.7-3.6l0,0
							c-2.8,0.6-5.2,1.7-7.1,2.9l0,0c-4.4,2.8-7.9,7.2-10.8,11.9l0,0c-5.1,8.2-8.6,16-17.2,21.9l0,0c-0.4,0.3-0.7,0.6-0.7,0.9l0,0
							c0,0.7,0.5,0.9,1.1,2.7l0,0c0.7,2.2,0.6,4.7-1.8,5.5l0,0c-1.8,0.6-3.3-0.1-4.4-1.4l0,0c-0.3-0.3-0.6-1.1-0.9-0.8l0,0
							c-0.3,0.1,0.2,1.4,0.3,1.6l0,0c3,8.1,9,15.8,16.7,20.2l0,0c3.2,1.9,6.2,2.3,9,0.5l0,0c-1.7,1.4-3.8,2-5.9,2l0,0
							C322.5,765.6,322.2,765.6,321.8,765.5"/>
						
							<radialGradient id="path3207_1_" cx="234.5436" cy="793.4995" r="0.9966" gradientTransform="matrix(79.9859 0 0 -79.7617 -18389.998 64008.6602)" gradientUnits="userSpaceOnUse">
							<stop  offset="0" style="stop-color:#4DC6F4"/>
							<stop  offset="0.8022" style="stop-color:#2157A3"/>
							<stop  offset="1" style="stop-color:#2157A3"/>
						</radialGradient>
						<path id="path3207" class="st10" d="M375.7,719.1c-0.3-1.9-0.7-2.4-1.9-1.4l0,0
							c-1.2,1-3.2,1.5-4.6,0l0,0c-3.5-3.7,2.1-9.1-4.2-15.9l0,0c-7-7.5-22.9-4.9-31.1-0.4l0,0c-4.9,2.7-10.1,6.8-16.3,12.4l0,0
							c2.9-2.9,6.6-6.7,10.9-11.2l0,0c9.8-10.3,20.8-14.3,30.3-14.5l0,0c12.4-0.2,25.5,8,25.5,21.9l0,0c0,12.3-11,24-21.5,27.6l0,0
							C370.4,733.8,376.9,726.1,375.7,719.1"/>
					</g>
					
						<path id="path3219-5" class="st7" d="
						M397.3,654.9l-0.4,2.5c-0.1,0.5-0.1,0.8-0.1,1h0c0-0.1-0.1-0.3-0.2-0.6l-1-2.9h-0.4l-0.9,2.7c-0.1,0.3-0.2,0.6-0.2,0.8h0
						c0-0.3-0.1-0.6-0.1-1l-0.3-2.5h-0.4l0.5,3.8h0.5l0.9-2.7c0.1-0.2,0.2-0.5,0.2-0.7h0c0.1,0.3,0.1,0.4,0.2,0.7l1,2.8h0.5l0.6-3.8
						L397.3,654.9z M391.4,658.4v-3.5H391v3.5h-1.2v0.3h2.8v-0.3H391.4z"/>
				</g>
			</g>
		</g>
	</g>
</g>
</svg>
